<svg xmlns="http://www.w3.org/2000/svg" viewBox="0 0 512 512" role="img" aria-labelledby="title desc">
  <title id="title">py-URD sticker</title>
  <desc id="desc">OmicVerse repository hex sticker for py-URD.</desc>
  <defs>
    <linearGradient id="bg" x1="112" y1="90" x2="398" y2="430" gradientUnits="userSpaceOnUse">
      <stop offset="0" stop-color="#050706"/>
      <stop offset=".58" stop-color="#020403"/>
      <stop offset="1" stop-color="#000000"/>
    </linearGradient>
  </defs>
  <polygon points="256,34 450,146 450,368 256,480 62,368 62,146" fill="#000000" opacity=".34"/>
  <polygon points="256,22 458,139 458,373 256,490 54,373 54,139" fill="url(#bg)" stroke="#0B0F0A" stroke-width="19" stroke-linejoin="round"/>
  <polygon points="256,22 458,139 458,373 256,490 54,373 54,139" fill="none" stroke="#E8FFE0" stroke-width="12" stroke-linejoin="round"/>
  <g opacity=".22" stroke="#3FD36B" stroke-width="2.2">
    <path d="M112 166h288M100 222h312M100 278h312M112 334h288"/>
    <path d="M152 126v236M204 104v274M256 96v286M308 104v274M360 126v236"/>
  </g>
  <g id="motif">
    <path d="M256 354V238M256 238l-76-66M256 238l76-66M180 172l-42-34M180 172l-22 62M332 172l44-34M332 172l22 62" stroke="#FFFFFF" stroke-width="8" stroke-linecap="round"/>
    <circle cx="256" cy="354" r="18" fill="#32D74B" stroke="#FFFFFF" stroke-width="5"/>
    <circle cx="180" cy="172" r="16" fill="#00C7BE" stroke="#FFFFFF" stroke-width="5"/>
    <circle cx="332" cy="172" r="16" fill="#FFD60A" stroke="#FFFFFF" stroke-width="5"/>
    <circle cx="138" cy="138" r="13" fill="#FF6961"/><circle cx="158" cy="234" r="13" fill="#32D74B"/><circle cx="376" cy="138" r="13" fill="#00C7BE"/><circle cx="354" cy="234" r="13" fill="#FF6961"/>
  </g>
  <path id="label" d="M306.16,379.61 L312.19,390.05 L305.84,393.72 L289.98,366.26 L296.34,362.59 L298.02,365.50 Q298.33,363.00 299.45,361.25 Q300.58,359.51 302.66,358.31 Q306.33,356.18 310.38,357.74 Q314.43,359.30 317.08,363.90 Q319.74,368.50 319.06,372.79 Q318.39,377.07 314.71,379.19 Q312.63,380.39 310.56,380.49 Q308.48,380.59 306.16,379.61 Z M302.96,364.29 Q300.91,365.47 300.68,367.60 Q300.46,369.73 302.09,372.55 Q303.72,375.38 305.68,376.25 Q307.64,377.12 309.68,375.94 Q311.72,374.76 311.94,372.65 Q312.15,370.53 310.51,367.69 Q308.87,364.85 306.93,363.98 Q305.00,363.11 302.96,364.29 Z M313.41,352.74 L319.77,349.07 L332.91,359.48 L329.66,343.35 L336.01,339.68 L340.22,366.29 Q340.88,370.34 339.96,372.63 Q339.05,374.92 336.30,376.51 L332.62,378.63 L330.21,374.46 L332.20,373.31 Q333.82,372.38 334.25,371.44 Q334.69,370.50 334.33,368.93 L334.20,368.27 L313.41,352.74 Z M342.59,345.00 L353.74,338.56 L356.73,343.73 L345.58,350.17 L342.59,345.00 Z M351.29,322.03 L358.12,318.08 L367.30,333.98 Q369.20,337.27 371.09,338.06 Q372.98,338.85 375.41,337.45 Q377.86,336.03 378.12,334.00 Q378.37,331.97 376.48,328.68 L367.30,312.79 L374.14,308.84 L383.32,324.73 Q386.57,330.37 385.33,334.75 Q384.10,339.13 378.31,342.48 Q372.54,345.81 368.12,344.69 Q363.71,343.56 360.46,337.93 L351.29,322.03 Z M397.32,311.13 Q399.47,309.89 399.94,308.56 Q400.41,307.22 399.36,305.39 Q398.31,303.57 396.93,303.33 Q395.54,303.09 393.39,304.33 L390.52,305.99 L394.45,312.79 L397.32,311.13 Z M397.17,317.51 L402.97,327.55 L396.13,331.50 L380.82,304.98 L391.26,298.95 Q396.50,295.93 399.96,296.28 Q403.41,296.63 405.61,300.43 Q407.12,303.05 406.83,305.48 Q406.53,307.90 404.44,310.17 Q406.03,309.68 407.79,310.17 Q409.55,310.66 412.01,312.29 L420.07,317.68 L412.79,321.88 L405.75,317.16 Q403.63,315.74 402.20,315.59 Q400.78,315.43 399.11,316.40 L397.17,317.51 Z M418.65,290.03 L427.99,306.21 L430.44,304.80 Q434.63,302.38 435.64,299.03 Q436.66,295.67 434.37,291.70 Q432.10,287.77 428.70,286.98 Q425.31,286.19 421.10,288.62 L418.65,290.03 Z M408.83,288.81 L416.03,284.65 Q422.08,281.16 425.53,280.32 Q428.98,279.47 432.29,280.31 Q435.19,281.03 437.45,282.86 Q439.71,284.67 441.42,287.64 Q443.15,290.64 443.60,293.52 Q444.06,296.39 443.23,299.26 Q442.29,302.55 439.80,305.14 Q437.31,307.72 431.35,311.17 L424.14,315.33 L408.83,288.81 Z" fill="#FFFFFF"/>
</svg>
